<?xml version="1.0" standalone="yes"?>

<svg version="1.1" viewBox="0.0 0.0 600.0 600.0" fill="none" stroke="none" stroke-linecap="square" stroke-miterlimit="10" xmlns="http://www.w3.org/2000/svg" xmlns:xlink="http://www.w3.org/1999/xlink"><clipPath id="p.0"><path d="m0 0l600.0 0l0 600.0l-600.0 0l0 -600.0z" clip-rule="nonzero"></path></clipPath><g clip-path="url(#p.0)"><path fill="#000000" fill-opacity="0.0" d="m0 0l600.0 0l0 600.0l-600.0 0z" fill-rule="nonzero"></path><path fill="#ffffff" d="m104.34646 64.62992l391.30707 0l0 470.74014l-391.30707 0z" fill-rule="nonzero"></path><path stroke="#333333" stroke-width="24.0" stroke-linejoin="round" stroke-linecap="butt" d="m104.34646 64.62992l391.30707 0l0 470.74014l-391.30707 0z" fill-rule="nonzero"></path><path fill="#000000" fill-opacity="0.0" d="m141.70079 139.32283l316.59845 0l0 321.3543l-316.59845 0z" fill-rule="nonzero"></path><path fill="#333333" d="m141.70079 139.32283l316.59845 0l0 30.236221l-316.59845 0z" fill-rule="nonzero"></path><path fill="#333333" d="m141.70079 211.05511l316.59845 0l0 30.236221l-316.59845 0z" fill-rule="nonzero"></path><path fill="#333333" d="m141.70079 430.44357l316.59845 0l0 30.236206l-316.59845 0z" fill-rule="nonzero"></path><path fill="#333333" d="m141.70079 358.68896l316.59845 0l0 30.236237l-316.59845 0z" fill-rule="nonzero"></path><path fill="#333333" d="m141.70079 286.937l316.59845 0l0 30.236206l-316.59845 0z" fill-rule="nonzero"></path></g></svg>

